<?xml version="1.0" standalone="no"?>
<!DOCTYPE svg PUBLIC "-//W3C//DTD SVG 20010904//EN"
 "http://www.w3.org/TR/2001/REC-SVG-20010904/DTD/svg10.dtd">
<svg version="1.0" xmlns="http://www.w3.org/2000/svg"
 width="1024.000000pt" height="1024.000000pt" viewBox="0 0 1024.000000 1024.000000"
 preserveAspectRatio="xMidYMid meet">

<g transform="translate(0.000000,1024.000000) scale(0.100000,-0.100000)"
fill="#000000" stroke="none">
<path d="M5120 8969 c-109 -13 -255 -53 -359 -98 -161 -69 -239 -119 -337
-216 -81 -80 -98 -103 -142 -195 -95 -196 -124 -369 -123 -746 0 -261 9 -439
42 -834 25 -302 24 -386 -1 -478 -39 -141 -152 -326 -325 -532 -102 -121 -308
-424 -392 -575 -131 -236 -295 -595 -387 -844 -86 -232 -127 -400 -133 -549
-6 -138 -11 -133 77 -102 76 27 107 25 177 -10 104 -52 276 -247 428 -485 31
-49 79 -121 105 -160 39 -58 252 -406 376 -615 18 -31 58 -92 90 -135 221
-306 250 -375 242 -584 l-3 -90 340 5 c187 2 467 9 623 15 156 7 338 8 405 5
114 -7 284 -27 340 -41 l24 -7 6 164 c4 127 14 216 46 403 22 132 41 250 41
262 0 19 -16 11 -127 -64 -223 -151 -510 -275 -741 -323 -122 -24 -329 -27
-453 -5 -261 45 -513 166 -646 308 -47 51 -47 52 -23 55 32 4 148 51 181 74
63 43 77 165 30 263 -32 67 -58 92 -296 280 -290 230 -501 414 -651 567 -129
131 -154 162 -172 211 -49 129 -53 307 -12 507 28 135 69 248 154 425 65 133
188 349 172 302 -3 -10 -29 -86 -56 -168 -63 -185 -113 -380 -135 -523 -22
-139 -17 -330 10 -394 9 -24 19 -41 21 -40 2 2 10 53 19 113 63 424 208 811
396 1055 129 168 296 473 374 685 64 173 85 272 95 462 l10 172 -60 57 c-73
69 -100 122 -100 194 0 82 28 128 123 207 45 37 84 68 86 70 2 1 -12 20 -32
42 -70 78 -105 171 -113 306 -13 201 66 383 190 441 61 29 107 30 162 5 142
-65 227 -296 191 -521 l-7 -45 112 0 c77 0 135 -6 181 -19 38 -10 70 -16 72
-14 2 1 -3 28 -11 58 -20 73 -19 239 1 313 68 256 271 390 459 304 264 -121
331 -589 119 -836 l-33 -39 28 -7 c46 -11 112 -55 133 -88 21 -36 24 -94 9
-178 -9 -49 -7 -63 19 -139 98 -290 420 -1087 536 -1330 157 -328 179 -388
219 -585 50 -248 61 -369 61 -688 l0 -299 54 58 c104 112 203 288 254 449 76
242 56 498 -55 707 -66 124 -148 224 -288 352 l-65 59 50 -28 c85 -47 231
-163 300 -237 203 -219 275 -440 246 -752 -20 -206 -76 -415 -158 -582 l-34
-71 -77 -6 c-89 -6 -173 -35 -220 -74 l-33 -28 29 -40 c44 -60 56 -108 54
-214 -2 -114 7 -132 83 -167 112 -51 263 -29 377 56 52 39 66 56 160 197 47
70 47 70 142 106 52 20 120 40 150 43 l55 7 30 96 c125 392 89 739 -130 1249
-123 288 -251 504 -540 911 -260 366 -330 475 -418 656 -104 212 -168 401
-217 645 -34 166 -40 275 -24 431 10 102 11 149 1 225 -43 351 -207 735 -386
903 -88 82 -135 112 -272 177 -221 103 -348 138 -543 148 -58 2 -139 0 -180
-5z"/>
<path d="M5512 7610 c-118 -27 -199 -181 -172 -327 16 -90 38 -124 100 -155
139 -69 165 -71 229 -13 76 69 109 207 77 318 -35 122 -137 199 -234 177z"/>
<path d="M4544 7591 c-110 -67 -102 -351 13 -452 32 -27 37 -29 56 -16 12 8
48 29 79 46 49 28 59 38 65 69 28 132 -21 292 -106 349 -41 28 -66 29 -107 4z"/>
<path d="M4785 7074 c-29 -31 -32 -49 -8 -58 10 -4 26 2 42 17 14 13 34 27 44
31 28 9 15 31 -21 34 -24 2 -38 -3 -57 -24z"/>
<path d="M5110 7090 c-17 -12 -12 -17 63 -65 47 -31 57 -31 57 -2 -1 46 -84
92 -120 67z"/>
<path d="M5654 6862 c-43 -22 -104 -55 -134 -74 -86 -55 -326 -173 -423 -207
-83 -29 -98 -31 -226 -31 -119 0 -147 3 -207 24 -91 32 -152 65 -236 131 -65
51 -98 67 -98 47 0 -5 42 -49 93 -99 95 -93 151 -128 275 -173 57 -21 74 -22
187 -17 79 4 153 14 204 27 76 21 333 139 390 179 14 10 62 38 106 61 100 52
205 127 205 144 0 14 -21 26 -44 26 -7 0 -48 -17 -92 -38z"/>
</g>
</svg>
